{
  "accessors": [
    {
      "bufferView": 2,
      "componentType": 5126,
      "count": 1778,
      "max": [
        56.15038299560547,
        16.44963264465332,
        62.59109115600586
      ],
      "min": [
        -56.150386810302734,
        -16.4331111907959,
        -65.68450164794922
      ],
      "type": "VEC3"
    },
    {
      "bufferView": 2,
      "byteOffset": 21336,
      "componentType": 5126,
      "count": 1778,
      "max": [
        1.0,
        1.0,
        1.0
      ],
      "min": [
        -1.0,
        -1.0,
        -1.0
      ],
      "type": "VEC3"
    },
    {
      "bufferView": 1,
      "componentType": 5126,
      "count": 1778,
      "max": [
        0.9983391165733337,
        0.9994697570800781
      ],
      "min": [
        0.001788516528904438,
        0.0020235851407051086
      ],
      "type": "VEC2"
    },
    {
      "bufferView": 0,
      "componentType": 5125,
      "count": 5694,
      "type": "SCALAR"
    }
  ],
  "asset": {
    "extras": {
      "author": "UrbanFoxGamer (https://sketchfab.com/UrbanFoxGamer)",
      "license": "CC-BY-4.0 (http://creativecommons.org/licenses/by/4.0/)",
      "source": "https://sketchfab.com/3d-models/freddy-the-ring-leader-bear-98d6307520e84247b9809f899a473054",
      "title": "Freddy the Ring leader bear"
    },
    "generator": "Sketchfab-12.67.0",
    "version": "2.0"
  },
  "bufferViews": [
    {
      "buffer": 0,
      "byteLength": 22776,
      "name": "floatBufferViews",
      "target": 34963
    },
    {
      "buffer": 0,
      "byteLength": 14224,
      "byteOffset": 22776,
      "byteStride": 8,
      "name": "floatBufferViews",
      "target": 34962
    },
    {
      "buffer": 0,
      "byteLength": 42672,
      "byteOffset": 37000,
      "byteStride": 12,
      "name": "floatBufferViews",
      "target": 34962
    }
  ],
  "buffers": [
    {
      "byteLength": 79672,
      "uri": "scene.bin"
    }
  ],
  "images": [
    {
      "uri": "textures/02_-_Default_baseColor.png"
    }
  ],
  "materials": [
    {
      "doubleSided": true,
      "name": "02_-_Default",
      "pbrMetallicRoughness": {
        "baseColorTexture": {
          "index": 0
        },
        "metallicFactor": 0.0,
        "roughnessFactor": 0.8929713596497552
      }
    }
  ],
  "meshes": [
    {
      "name": "Object011_02 - Default_0",
      "primitives": [
        {
          "attributes": {
            "NORMAL": 1,
            "POSITION": 0,
            "TEXCOORD_0": 2
          },
          "indices": 3,
          "material": 0,
          "mode": 4
        }
      ]
    }
  ],
  "nodes": [
    {
      "children": [
        1
      ],
      "matrix": [
        1.0,
        0.0,
        0.0,
        0.0,
        0.0,
        2.220446049250313e-16,
        -1.0,
        0.0,
        0.0,
        1.0,
        2.220446049250313e-16,
        0.0,
        0.0,
        0.0,
        0.0,
        1.0
      ],
      "name": "Sketchfab_model"
    },
    {
      "children": [
        2
      ],
      "matrix": [
        1.0,
        0.0,
        0.0,
        0.0,
        0.0,
        0.0,
        1.0,
        0.0,
        0.0,
        -1.0,
        0.0,
        0.0,
        0.0,
        0.0,
        0.0,
        1.0
      ],
      "name": "69926dd564a045cfba9acc6088b42e6a.fbx"
    },
    {
      "children": [
        3
      ],
      "name": "RootNode"
    },
    {
      "children": [
        4
      ],
      "matrix": [
        -1.6169848442077455,
        -1.980235614143118e-16,
        2.441579222706705e-07,
        0.0,
        2.441579222706705e-07,
        -7.180855218037524e-16,
        1.6169848442077455,
        0.0,
        -1.980234758118469e-16,
        1.6169848442077637,
        5.385641413528143e-16,
        0.0,
        9.4039548065783e-38,
        70.146728515625,
        -1.401298464324817e-44,
        1.0
      ],
      "name": "Object011"
    },
    {
      "children": [
        5
      ],
      "matrix": [
        1.0,
        0.0,
        -0.0,
        0.0,
        0.0,
        1.0,
        0.0,
        0.0,
        0.0,
        0.0,
        1.0,
        0.0,
        0.0,
        0.0,
        -43.38119125366211,
        1.0
      ],
      "name": "Object_4"
    },
    {
      "mesh": 0,
      "name": "Object011_02 - Default_0"
    }
  ],
  "samplers": [
    {
      "magFilter": 9729,
      "minFilter": 9987,
      "wrapS": 10497,
      "wrapT": 10497
    }
  ],
  "scene": 0,
  "scenes": [
    {
      "name": "Sketchfab_Scene",
      "nodes": [
        0
      ]
    }
  ],
  "textures": [
    {
      "sampler": 0,
      "source": 0
    }
  ]
}
